<svg width="39" height="15" viewBox="0 0 39 15" fill="none" xmlns="http://www.w3.org/2000/svg">
<path d="M23.0858 4.2876L0.217221 5.73156L0.907309 13.5231L23.7759 12.0791L23.0858 4.2876Z" fill="#EC4925" fill-opacity="0.68"/>
<path d="M34.6519 0.209896L0.217221 5.73156L0.907309 13.5231L37.2759 11.2267L37.8981 9.89512L36.3847 8.06926L35.4178 3.684L36.4992 1.47288L34.6519 0.209896Z" fill="#EC4925" fill-opacity="0.68"/>
<path d="M2.10863 13.3971L1.5071 6.32906L3.43651 6.16485C3.74031 6.139 4.00889 6.15846 4.24227 6.22323C4.47511 6.28154 4.67245 6.38194 4.83432 6.52441C4.99564 6.66043 5.12147 6.83852 5.21183 7.0587C5.3081 7.27187 5.36861 7.52388 5.39336 7.81475C5.43022 8.24781 5.38263 8.60669 5.25061 8.89136C5.11803 9.16958 4.8773 9.3626 4.52839 9.47041L4.53334 9.52859C4.91965 9.55431 5.21595 9.70813 5.42224 9.99006C5.62798 10.2655 5.7512 10.6424 5.79191 11.1207C5.82986 11.5667 5.78365 11.9417 5.65328 12.2458C5.52882 12.5429 5.32721 12.7749 5.04844 12.9418C4.77559 13.1018 4.4291 13.1996 4.00896 13.2354L2.10863 13.3971ZM3.36534 12.5577L3.07076 12.3094L3.77853 12.2491C4.07586 12.2238 4.27638 12.1319 4.38007 11.9733C4.48376 11.8147 4.52516 11.6126 4.50426 11.367C4.49765 11.2895 4.49023 11.2022 4.48198 11.1052C4.47373 11.0083 4.4663 10.921 4.4597 10.8435C4.43439 10.5461 4.34569 10.3454 4.19359 10.2411C4.04795 10.1363 3.85878 10.0938 3.62609 10.1136L3.02496 10.1648L2.94163 9.18553L3.56214 9.13272C3.78191 9.11402 3.94123 9.03535 4.04011 8.89673C4.13899 8.7581 4.17798 8.56598 4.15708 8.32036C4.14992 8.23633 4.14305 8.15553 4.13645 8.07797C4.1293 7.99394 4.12242 7.91314 4.11582 7.83558C4.10207 7.67399 4.06493 7.54368 4.00442 7.44466C3.94336 7.33918 3.85892 7.26499 3.7511 7.22208C3.64328 7.17917 3.50858 7.16459 3.34698 7.17835L2.63921 7.23858L2.88758 6.944L3.36534 12.5577Z" fill="#F5F9FF"/>
<path d="M6.68182 13.0079L6.08029 5.93985L7.39888 5.82763L7.94018 12.1879L7.52987 11.842L9.48837 11.6753L9.58079 12.7612L6.68182 13.0079Z" fill="#F5F9FF"/>
<path d="M9.93051 12.7314L10.6185 5.55363L12.4897 5.39437L14.3711 12.3535L13.0525 12.4657L12.756 11.1628L11.3308 11.2841L11.2588 12.6184L9.93051 12.7314ZM11.3921 10.2828L12.5264 10.1862L11.9829 8.04497L11.7001 6.67254L11.6128 6.67996L11.566 8.08045L11.3921 10.2828Z" fill="#F5F9FF"/>
<path d="M14.995 12.3004L14.3935 5.23236L16.4295 5.05908C16.9143 5.01782 17.3166 5.07799 17.6363 5.23958C17.9555 5.39471 18.2016 5.64721 18.3746 5.99707C18.5476 6.34694 18.6578 6.79981 18.7051 7.35568L18.8858 9.47901C18.9326 10.0284 18.9005 10.4934 18.7897 10.8739C18.6783 11.248 18.4786 11.5417 18.1908 11.755C17.9024 11.9618 17.5158 12.0859 17.0311 12.1271L14.995 12.3004ZM16.2212 11.1023L16.8029 11.0528C17.0227 11.0341 17.1933 10.974 17.3149 10.8725C17.4365 10.771 17.5151 10.6243 17.5509 10.4325C17.5931 10.2401 17.6021 10.0017 17.5779 9.71727L17.3758 7.34186C17.351 7.051 17.3018 6.81755 17.2283 6.64151C17.1606 6.45847 17.0583 6.3272 16.9213 6.24771C16.7843 6.16822 16.606 6.13783 16.3862 6.15653L15.8045 6.20604L16.2212 11.1023Z" fill="#F5F9FF"/>
<path d="M19.9564 11.8782L19.3549 4.81012L22.5738 4.53617L22.6662 5.62207L20.7659 5.7838L20.9226 7.62595L22.5127 7.49063L22.6027 8.54744L21.0126 8.68276L21.1826 10.68L23.1314 10.5142L23.2238 11.6001L19.9564 11.8782Z" fill="#F5F9FF"/>
<path d="M23.9993 11.5341L23.3978 4.46604L24.7164 4.35382L24.9928 7.60182L26.3453 4.21519L27.7802 4.09307L26.3017 7.49043L26.2646 7.05413L28.4593 11.1545L27.0147 11.2775L25.5948 8.47834L25.157 9.53124L25.3179 11.4219L23.9993 11.5341Z" fill="#F5F9FF"/>
<path d="M29.1028 11.0998L28.5012 4.03171L29.8198 3.91949L30.4214 10.9875L29.1028 11.0998Z" fill="#F5F9FF"/>
<path d="M31.8923 4.70992L33.2109 4.5977L33.7307 10.7059L32.4121 10.8181L31.8923 4.70992ZM34.4626 4.61813L30.6523 4.94241L30.5599 3.85651L34.3702 3.53223L34.4626 4.61813Z" fill="#F5F9FF"/>
</svg>
