<svg width="14" height="14" viewBox="0 0 14 14" fill="none" xmlns="http://www.w3.org/2000/svg">
    <path d="M1.75 0H12.25C13.216 0 14 0.784 14 1.75V12.25C14 12.7141 13.8156 13.1592 13.4874 13.4874C13.1592 13.8156 12.7141 14 12.25 14H1.75C1.28587 14 0.840752 13.8156 0.512563 13.4874C0.184374 13.1592 0 12.7141 0 12.25V1.75C0 0.784 0.784 0 1.75 0ZM12.25 1.5H1.75C1.6837 1.5 1.62011 1.52634 1.57322 1.57322C1.52634 1.62011 1.5 1.6837 1.5 1.75V12.25C1.5 12.388 1.612 12.5 1.75 12.5H12.25C12.3163 12.5 12.3799 12.4737 12.4268 12.4268C12.4737 12.3799 12.5 12.3163 12.5 12.25V1.75C12.5 1.6837 12.4737 1.62011 12.4268 1.57322C12.3799 1.52634 12.3163 1.5 12.25 1.5ZM7 3C7.19891 3 7.38968 3.07902 7.53033 3.21967C7.67098 3.36032 7.75 3.55109 7.75 3.75V6.25H10.25C10.4489 6.25 10.6397 6.32902 10.7803 6.46967C10.921 6.61032 11 6.80109 11 7C11 7.19891 10.921 7.38968 10.7803 7.53033C10.6397 7.67098 10.4489 7.75 10.25 7.75H7.75V10.25C7.75 10.4489 7.67098 10.6397 7.53033 10.7803C7.38968 10.921 7.19891 11 7 11C6.80109 11 6.61032 10.921 6.46967 10.7803C6.32902 10.6397 6.25 10.4489 6.25 10.25V7.75H3.75C3.55109 7.75 3.36032 7.67098 3.21967 7.53033C3.07902 7.38968 3 7.19891 3 7C3 6.80109 3.07902 6.61032 3.21967 6.46967C3.36032 6.32902 3.55109 6.25 3.75 6.25H6.25V3.75C6.25 3.55109 6.32902 3.36032 6.46967 3.21967C6.61032 3.07902 6.80109 3 7 3Z" fill="#24292F"/>
</svg>
