<svg width="125" height="100" viewBox="0 0 125 100" fill="none" xmlns="http://www.w3.org/2000/svg">
    <path d="M0 14.9268C0 6.70482 6.66527 0.0395508 14.8873 0.0395508H110.113C118.335 0.0395508 125 6.70482 125 14.9268V84.7832C125 93.0052 118.335 99.6704 110.113 99.6704H14.8873C6.66526 99.6704 0 93.0052 0 84.7832V14.9268Z" fill="#CCCCCC" fill-opacity="0.752941"/>
    <path d="M0 7.8585C0 3.54021 3.50066 0.0395508 7.81895 0.0395508H117.181C121.499 0.0395508 125 3.54022 125 7.8585V91.8515C125 96.1698 121.499 99.6704 117.181 99.6704H7.81895C3.50066 99.6704 0 96.1698 0 91.8515V7.8585Z" fill="#CCCCCC" fill-opacity="0.752941"/>
    <path d="M0 9.92486C0 4.44352 4.44351 0 9.92486 0H27.6238C29.651 0 31.6296 0.620791 33.2935 1.77888L50.7229 13.91C52.3868 15.0681 54.3654 15.6889 56.3926 15.6889H115.075C120.557 15.6889 125 11.2454 125 5.76401V0V89.7456C125 95.227 120.556 99.6705 115.075 99.6705H9.92486C4.44351 99.6705 0 95.227 0 89.7456V9.92486Z" fill="#24292F"/>
    <path d="M45.2538 69.4432C46.1618 67.7659 47.6627 66.5786 49.4262 66.1427C51.1897 65.7067 53.0714 66.0578 54.6574 67.1186C56.2434 68.1794 57.4037 69.8631 57.8831 71.7992C58.3625 73.7354 58.1218 75.7654 57.2138 77.4427C56.3058 79.1201 54.805 80.3073 53.0415 80.7432C51.278 81.1792 49.3962 80.8282 47.8102 79.7673C46.2243 78.7065 45.0639 77.0229 44.5845 75.0867C44.1051 73.1506 44.3459 71.1205 45.2538 69.4432ZM6.97953 82.2759C7.88752 80.5986 9.38835 79.4114 11.1519 78.9754C12.9154 78.5395 14.7971 78.8905 16.3831 79.9513C17.9691 81.0121 19.1294 82.6958 19.6088 84.632C20.0882 86.5681 19.8475 88.5981 18.9395 90.2755C18.0315 91.9528 16.5307 93.14 14.7672 93.576C13.0036 94.0119 11.1219 93.6609 9.53593 92.6001C7.94994 91.5393 6.78961 89.8556 6.31019 87.9194C5.83078 85.9833 6.07155 83.9532 6.97953 82.2759ZM22.2539 54.0595C23.1619 52.3821 24.6628 51.1949 26.4263 50.759C28.1898 50.323 30.0715 50.6741 31.6575 51.7349C33.2435 52.7957 34.4038 54.4793 34.8832 56.4155C35.3626 58.3516 35.1219 60.3817 34.2139 62.059C33.3059 63.7363 31.8051 64.9236 30.0416 65.3595C28.2781 65.7955 26.3963 65.4444 24.8103 64.3836C23.2244 63.3228 22.064 61.6391 21.5846 59.703C21.1052 57.7668 21.346 55.7368 22.2539 54.0595ZM26.3905 61.4647C27.2448 62.0358 28.2584 62.2245 29.2082 61.9894C30.158 61.7543 30.9661 61.1146 31.455 60.211C31.9438 59.3074 32.0732 58.214 31.8147 57.1712C31.5562 56.1284 30.931 55.2217 30.0766 54.6506C29.6535 54.3678 29.187 54.176 28.7035 54.0859C28.22 53.9959 27.7292 54.0095 27.2589 54.1259C26.3091 54.361 25.5009 55.0007 25.0121 55.9043C24.5233 56.8079 24.3939 57.9014 24.6524 58.9441C24.9109 59.9869 25.5361 60.8936 26.3905 61.4647ZM11.116 89.6811C11.5391 89.9639 12.0057 90.1558 12.4891 90.2458C12.9726 90.3359 13.4635 90.3223 13.9338 90.2059C14.404 90.0895 14.8445 89.8725 15.23 89.5674C15.6155 89.2622 15.9385 88.8749 16.1805 88.4275C16.4226 87.9801 16.5789 87.4813 16.6406 86.9597C16.7024 86.4382 16.6682 85.904 16.5403 85.3876C16.4123 84.8713 16.1929 84.383 15.8947 83.9505C15.5965 83.518 15.2252 83.1499 14.8022 82.8671C13.9478 82.296 12.9342 82.1072 11.9845 82.3423C11.0347 82.5774 10.2265 83.2172 9.73768 84.1207C9.24886 85.0243 9.11948 86.1178 9.37797 87.1606C9.63646 88.2034 10.2617 89.11 11.116 89.6811ZM49.3904 76.8484C50.2447 77.4195 51.2583 77.6083 52.2081 77.3732C53.1579 77.1381 53.966 76.4983 54.4549 75.5947C54.9437 74.6912 55.0731 73.5977 54.8146 72.5549C54.5561 71.5121 53.9309 70.6055 53.0765 70.0343C52.6535 69.7516 52.1869 69.5597 51.7034 69.4696C51.2199 69.3796 50.7291 69.3932 50.2588 69.5096C49.7885 69.626 49.348 69.843 48.9625 70.1481C48.577 70.4533 48.254 70.8406 48.012 71.288C47.77 71.7354 47.6136 72.2342 47.5519 72.7557C47.4902 73.2773 47.5243 73.8115 47.6523 74.3278C47.7803 74.8442 47.9996 75.3325 48.2979 75.765C48.5961 76.1975 48.9673 76.5656 49.3904 76.8484Z" fill="#DFD2C7" fill-opacity="0.38"/>
    <path d="M15.593 81.4108C15.227 81.166 14.9593 80.7775 14.8486 80.3307C14.738 79.8839 14.7936 79.4154 15.0031 79.0283L23.4304 63.4606C23.6399 63.0735 23.9863 62.7996 24.3932 62.699C24.8002 62.5984 25.2344 62.6794 25.6004 62.9242C25.9664 63.169 26.2342 63.5575 26.3448 64.0043C26.4554 64.4511 26.3999 64.9196 26.1904 65.3067L17.7631 80.8744C17.5536 81.2614 17.2072 81.5354 16.8002 81.636C16.3933 81.7366 15.959 81.6556 15.593 81.4108Z" fill="#DFD2C7" fill-opacity="0.38"/>
    <path d="M45.6402 80.3038L46.6936 78.3578L49.4536 80.2039L48.4002 82.1498C47.3525 84.0852 45.6208 85.4551 43.586 85.9581C41.5512 86.4611 39.3799 86.0561 37.55 84.8321L24.67 76.2172C23.816 75.646 22.8028 75.457 21.8532 75.6917C20.9036 75.9264 20.0955 76.5657 19.6066 77.4689L16.8466 75.6229C17.7546 73.9455 19.2554 72.7583 21.0189 72.3224C22.7824 71.8864 24.6641 72.2375 26.2501 73.2983L39.1301 81.9131C40.2281 82.6475 41.5308 82.8906 42.7517 82.5888C43.9726 82.287 45.0116 81.465 45.6402 80.3038Z" fill="#DFD2C7" fill-opacity="0.38"/>
</svg>
